<svg xmlns="http://www.w3.org/2000/svg" width="340" height="92" viewBox="0 0 340 92">
<defs>
<linearGradient id="pg" x1="0" y1="0" x2="0" y2="1"><stop offset="0" stop-color="#252b3b"/><stop offset="1" stop-color="#171b26"/></linearGradient>
<linearGradient id="sf" x1="0" y1="1" x2="0" y2="0"><stop offset="0" stop-color="#E8870E"/><stop offset="1" stop-color="#F7B53C"/></linearGradient>
<filter id="sh" x="-20%" y="-20%" width="140%" height="160%"><feDropShadow dx="0" dy="5" stdDeviation="8" flood-color="#000" flood-opacity="0.45"/></filter>
</defs>
<g filter="url(#sh)" transform="translate(8,4)">
<rect width="324" height="84" rx="42" fill="url(#pg)" stroke="#46361c"/>
<circle cx="312" cy="14" r="6" fill="#F0473E"/>
<circle cx="44" cy="42" r="22" fill="#2a2230" stroke="#5a3340"/>
<g stroke="#F2555A" stroke-width="2.6" stroke-linecap="round"><line x1="37" y1="35" x2="51" y2="49"/><line x1="51" y1="35" x2="37" y2="49"/></g>
<g><rect x="118" y="34" width="5" height="16" rx="2.5" fill="url(#sf)"/><rect x="132" y="27" width="5" height="30" rx="2.5" fill="url(#sf)"/><rect x="146" y="19" width="5" height="46" rx="2.5" fill="url(#sf)"/><rect x="160" y="30" width="5" height="24" rx="2.5" fill="url(#sf)"/><rect x="174" y="16" width="5" height="52" rx="2.5" fill="url(#sf)"/><rect x="188" y="24" width="5" height="36" rx="2.5" fill="url(#sf)"/><rect x="202" y="14" width="5" height="56" rx="2.5" fill="url(#sf)"/><rect x="216" y="28" width="5" height="28" rx="2.5" fill="url(#sf)"/><rect x="230" y="20" width="5" height="44" rx="2.5" fill="url(#sf)"/><rect x="244" y="31" width="5" height="22" rx="2.5" fill="url(#sf)"/><rect x="258" y="34" width="5" height="16" rx="2.5" fill="url(#sf)"/></g>
<circle cx="280" cy="42" r="22" fill="#1e2a28" stroke="#2f5a4c"/>
<polyline points="272,42 278,49 289,35" fill="none" stroke="#37C892" stroke-width="2.7" stroke-linecap="round" stroke-linejoin="round"/>
</g></svg>